<svg xmlns="http://www.w3.org/2000/svg" xmlns:xlink="http://www.w3.org/1999/xlink" width="1080" zoomAndPan="magnify" viewBox="0 0 810 809.999993" height="1080" preserveAspectRatio="xMidYMid meet" version="1.0"><defs><clipPath id="3821b832e5"><path d="M 62 52.84375 L 261 52.84375 L 261 252 L 62 252 Z M 62 52.84375 " clip-rule="nonzero"/></clipPath><clipPath id="113980d09d"><path d="M 62 493 L 261 493 L 261 691.84375 L 62 691.84375 Z M 62 493 " clip-rule="nonzero"/></clipPath></defs><path fill="#ffffff" d="M 161.25 272.984375 C 106.554688 272.984375 62.054688 317.507812 62.054688 372.226562 C 62.054688 426.941406 106.554688 471.460938 161.25 471.460938 C 215.945312 471.460938 260.445312 426.941406 260.445312 372.226562 C 260.449219 317.507812 215.949219 272.984375 161.25 272.984375 Z M 161.25 460.574219 C 112.554688 460.574219 72.933594 420.941406 72.933594 372.226562 C 72.933594 323.503906 112.554688 283.875 161.25 283.875 C 209.945312 283.875 249.5625 323.511719 249.5625 372.226562 C 249.570312 420.941406 209.949219 460.574219 161.25 460.574219 Z M 161.25 460.574219 " fill-opacity="1" fill-rule="nonzero"/><path fill="#ffffff" d="M 139.730469 371.875 C 142.734375 371.875 145.171875 369.4375 145.171875 366.433594 L 145.171875 326.460938 C 145.171875 323.457031 142.734375 321.019531 139.730469 321.019531 C 136.726562 321.019531 134.289062 323.457031 134.289062 326.460938 L 134.289062 366.433594 C 134.289062 369.445312 136.726562 371.875 139.730469 371.875 Z M 139.730469 371.875 " fill-opacity="1" fill-rule="nonzero"/><path fill="#ffffff" d="M 182.773438 371.875 C 185.777344 371.875 188.214844 369.4375 188.214844 366.433594 L 188.214844 326.460938 C 188.214844 323.457031 185.777344 321.019531 182.773438 321.019531 C 179.769531 321.019531 177.332031 323.457031 177.332031 326.460938 L 177.332031 366.433594 C 177.332031 369.445312 179.765625 371.875 182.773438 371.875 Z M 182.773438 371.875 " fill-opacity="1" fill-rule="nonzero"/><path fill="#ffffff" d="M 209.328125 375.796875 C 206.375 375.164062 203.503906 377.058594 202.886719 380.003906 C 202.578125 381.46875 194.992188 415.773438 161.25 415.773438 C 127.683594 415.773438 119.921875 381.445312 119.609375 380.003906 C 118.996094 377.058594 116.132812 375.175781 113.167969 375.796875 C 110.226562 376.410156 108.34375 379.300781 108.964844 382.242188 C 112.183594 397.605469 127.261719 426.664062 161.25 426.664062 C 195.238281 426.664062 210.3125 397.605469 213.535156 382.242188 C 214.15625 379.300781 212.273438 376.410156 209.328125 375.796875 Z M 209.328125 375.796875 " fill-opacity="1" fill-rule="nonzero"/><path fill="#ffffff" d="M 742.148438 295.234375 L 310.199219 295.234375 C 307.195312 295.234375 304.757812 297.671875 304.757812 300.679688 L 304.757812 346.65625 L 272.042969 367.640625 C 270.484375 368.644531 269.542969 370.371094 269.542969 372.226562 C 269.542969 374.082031 270.484375 375.808594 272.042969 376.808594 L 304.757812 397.800781 L 304.757812 443.765625 C 304.757812 446.777344 307.195312 449.210938 310.199219 449.210938 L 742.148438 449.210938 C 745.148438 449.210938 747.585938 446.777344 747.585938 443.765625 L 747.585938 300.671875 C 747.585938 297.667969 745.148438 295.234375 742.148438 295.234375 Z M 736.707031 438.324219 L 315.640625 438.324219 L 315.640625 394.824219 C 315.640625 392.96875 314.699219 391.242188 313.136719 390.242188 L 285.058594 372.21875 L 313.136719 354.203125 C 314.699219 353.203125 315.640625 351.476562 315.640625 349.621094 L 315.640625 306.117188 L 736.707031 306.117188 Z M 736.707031 438.324219 " fill-opacity="1" fill-rule="nonzero"/><path fill="#ffffff" d="M 353.589844 377.667969 L 480.300781 377.667969 C 483.304688 377.667969 485.742188 375.230469 485.742188 372.226562 C 485.742188 369.222656 483.304688 366.78125 480.300781 366.78125 L 353.589844 366.78125 C 350.585938 366.78125 348.148438 369.222656 348.148438 372.226562 C 348.148438 375.230469 350.585938 377.667969 353.589844 377.667969 Z M 353.589844 377.667969 " fill-opacity="1" fill-rule="nonzero"/><g clip-path="url(#3821b832e5)"><path fill="#ffffff" d="M 161.25 52.84375 C 106.554688 52.84375 62.054688 97.363281 62.054688 152.082031 C 62.054688 206.796875 106.554688 251.316406 161.25 251.316406 C 215.945312 251.316406 260.445312 206.796875 260.445312 152.082031 C 260.445312 97.363281 215.949219 52.84375 161.25 52.84375 Z M 161.25 240.4375 C 112.554688 240.4375 72.933594 200.800781 72.933594 152.082031 C 72.933594 103.359375 112.554688 63.730469 161.25 63.730469 C 209.945312 63.730469 249.5625 103.367188 249.5625 152.082031 C 249.5625 200.792969 209.949219 240.4375 161.25 240.4375 Z M 161.25 240.4375 " fill-opacity="1" fill-rule="nonzero"/></g><path fill="#ffffff" d="M 139.730469 151.738281 C 142.734375 151.738281 145.171875 149.300781 145.171875 146.292969 L 145.171875 106.320312 C 145.171875 103.316406 142.734375 100.878906 139.730469 100.878906 C 136.726562 100.878906 134.289062 103.316406 134.289062 106.320312 L 134.289062 146.292969 C 134.289062 149.300781 136.726562 151.738281 139.730469 151.738281 Z M 139.730469 151.738281 " fill-opacity="1" fill-rule="nonzero"/><path fill="#ffffff" d="M 182.773438 151.738281 C 185.777344 151.738281 188.214844 149.300781 188.214844 146.292969 L 188.214844 106.320312 C 188.214844 103.316406 185.777344 100.878906 182.773438 100.878906 C 179.769531 100.878906 177.332031 103.316406 177.332031 106.320312 L 177.332031 146.292969 C 177.332031 149.300781 179.765625 151.738281 182.773438 151.738281 Z M 182.773438 151.738281 " fill-opacity="1" fill-rule="nonzero"/><path fill="#ffffff" d="M 208.214844 166.546875 L 114.289062 166.546875 C 112.652344 166.546875 111.101562 167.289062 110.066406 168.5625 C 109.035156 169.835938 108.632812 171.507812 108.96875 173.113281 C 112.191406 188.476562 127.265625 217.542969 161.253906 217.542969 C 195.242188 217.542969 210.320312 188.484375 213.539062 173.113281 C 213.878906 171.507812 213.476562 169.835938 212.441406 168.5625 C 211.40625 167.289062 209.851562 166.546875 208.214844 166.546875 Z M 161.25 206.652344 C 136.367188 206.652344 125.667969 187.785156 121.667969 177.433594 L 200.863281 177.433594 C 196.914062 187.785156 186.269531 206.652344 161.25 206.652344 Z M 161.25 206.652344 " fill-opacity="1" fill-rule="nonzero"/><path fill="#ffffff" d="M 742.148438 75.089844 L 310.199219 75.089844 C 307.195312 75.089844 304.757812 77.527344 304.757812 80.535156 L 304.757812 126.503906 L 272.042969 147.496094 C 270.484375 148.5 269.542969 150.222656 269.542969 152.082031 C 269.542969 153.9375 270.484375 155.660156 272.042969 156.664062 L 304.757812 177.652344 L 304.757812 223.621094 C 304.757812 226.625 307.195312 229.066406 310.199219 229.066406 L 742.148438 229.066406 C 745.148438 229.066406 747.585938 226.625 747.585938 223.621094 L 747.585938 80.535156 C 747.585938 77.527344 745.148438 75.089844 742.148438 75.089844 Z M 736.707031 218.183594 L 315.640625 218.183594 L 315.640625 174.679688 C 315.640625 172.824219 314.699219 171.097656 313.136719 170.097656 L 285.058594 152.082031 L 313.136719 134.058594 C 314.699219 133.058594 315.640625 131.332031 315.640625 129.476562 L 315.640625 85.976562 L 736.707031 85.976562 Z M 736.707031 218.183594 " fill-opacity="1" fill-rule="nonzero"/><path fill="#ffffff" d="M 353.589844 157.523438 L 387.808594 157.523438 C 390.8125 157.523438 393.25 155.085938 393.25 152.082031 C 393.25 149.074219 390.8125 146.636719 387.808594 146.636719 L 353.589844 146.636719 C 350.585938 146.636719 348.148438 149.074219 348.148438 152.082031 C 348.148438 155.085938 350.585938 157.523438 353.589844 157.523438 Z M 353.589844 157.523438 " fill-opacity="1" fill-rule="nonzero"/><g clip-path="url(#113980d09d)"><path fill="#ffffff" d="M 161.25 493.128906 C 106.554688 493.128906 62.054688 537.640625 62.054688 592.363281 C 62.054688 647.085938 106.554688 691.601562 161.25 691.601562 C 215.945312 691.601562 260.445312 647.082031 260.445312 592.363281 C 260.445312 537.648438 215.949219 493.128906 161.25 493.128906 Z M 161.25 680.714844 C 112.554688 680.714844 72.933594 641.078125 72.933594 592.363281 C 72.933594 543.648438 112.554688 504.015625 161.25 504.015625 C 209.945312 504.015625 249.5625 543.648438 249.5625 592.363281 C 249.5625 641.078125 209.949219 680.714844 161.25 680.714844 Z M 161.25 680.714844 " fill-opacity="1" fill-rule="nonzero"/></g><path fill="#ffffff" d="M 182.773438 592.023438 C 185.777344 592.023438 188.214844 589.589844 188.214844 586.578125 L 188.214844 546.605469 C 188.214844 543.597656 185.777344 541.164062 182.773438 541.164062 C 179.769531 541.164062 177.332031 543.597656 177.332031 546.605469 L 177.332031 586.578125 C 177.332031 589.582031 179.765625 592.023438 182.773438 592.023438 Z M 182.773438 592.023438 " fill-opacity="1" fill-rule="nonzero"/><path fill="#ffffff" d="M 139.730469 592.023438 C 142.734375 592.023438 145.171875 589.589844 145.171875 586.578125 L 145.171875 546.605469 C 145.171875 543.597656 142.734375 541.164062 139.730469 541.164062 C 136.726562 541.164062 134.289062 543.597656 134.289062 546.605469 L 134.289062 586.578125 C 134.289062 589.582031 136.726562 592.023438 139.730469 592.023438 Z M 139.730469 592.023438 " fill-opacity="1" fill-rule="nonzero"/><path fill="#ffffff" d="M 742.148438 515.378906 L 310.199219 515.378906 C 307.195312 515.378906 304.757812 517.8125 304.757812 520.824219 L 304.757812 566.789062 L 272.042969 587.78125 C 270.484375 588.78125 269.542969 590.507812 269.542969 592.363281 C 269.542969 594.21875 270.484375 595.945312 272.042969 596.949219 L 304.757812 617.941406 L 304.757812 663.90625 C 304.757812 666.917969 307.195312 669.347656 310.199219 669.347656 L 742.148438 669.347656 C 745.148438 669.347656 747.585938 666.917969 747.585938 663.90625 L 747.585938 520.824219 C 747.585938 517.8125 745.148438 515.378906 742.148438 515.378906 Z M 736.707031 658.46875 L 315.640625 658.46875 L 315.640625 614.96875 C 315.640625 613.113281 314.699219 611.386719 313.136719 610.386719 L 285.058594 592.363281 L 313.136719 574.34375 C 314.699219 573.339844 315.640625 571.617188 315.640625 569.761719 L 315.640625 526.261719 L 736.707031 526.261719 Z M 736.707031 658.46875 " fill-opacity="1" fill-rule="nonzero"/><path fill="#ffffff" d="M 508.566406 377.667969 L 568.117188 377.667969 C 571.121094 377.667969 573.558594 375.230469 573.558594 372.226562 C 573.558594 369.222656 571.121094 366.78125 568.117188 366.78125 L 508.566406 366.78125 C 505.5625 366.78125 503.125 369.222656 503.125 372.226562 C 503.125 375.230469 505.5625 377.667969 508.566406 377.667969 Z M 508.566406 377.667969 " fill-opacity="1" fill-rule="nonzero"/><path fill="#ffffff" d="M 209.351562 607.261719 L 111.402344 623.265625 C 108.4375 623.753906 106.421875 626.550781 106.90625 629.511719 C 107.34375 632.179688 109.648438 634.078125 112.273438 634.078125 C 112.558594 634.078125 112.855469 634.058594 113.152344 634.007812 L 211.101562 618.007812 C 214.066406 617.515625 216.082031 614.71875 215.597656 611.757812 C 215.113281 608.796875 212.355469 606.800781 209.351562 607.261719 Z M 209.351562 607.261719 " fill-opacity="1" fill-rule="nonzero"/><path fill="#ffffff" d="M 346.21875 581.300781 L 568.117188 581.300781 C 571.121094 581.300781 573.558594 578.867188 573.558594 575.855469 C 573.558594 572.847656 571.121094 570.414062 568.117188 570.414062 L 346.21875 570.414062 C 343.214844 570.414062 340.777344 572.847656 340.777344 575.855469 C 340.777344 578.867188 343.214844 581.300781 346.21875 581.300781 Z M 346.21875 581.300781 " fill-opacity="1" fill-rule="nonzero"/><path fill="#ffffff" d="M 601.128906 581.300781 L 658.125 581.300781 C 661.128906 581.300781 663.566406 578.867188 663.566406 575.855469 C 663.566406 572.847656 661.128906 570.414062 658.125 570.414062 L 601.128906 570.414062 C 598.125 570.414062 595.6875 572.847656 595.6875 575.855469 C 595.6875 578.867188 598.121094 581.300781 601.128906 581.300781 Z M 601.128906 581.300781 " fill-opacity="1" fill-rule="nonzero"/><path fill="#ffffff" d="M 346.21875 623.519531 L 596.132812 623.519531 C 599.136719 623.519531 601.574219 621.085938 601.574219 618.078125 C 601.574219 615.066406 599.136719 612.632812 596.132812 612.632812 L 346.21875 612.632812 C 343.214844 612.632812 340.777344 615.066406 340.777344 618.078125 C 340.777344 621.085938 343.214844 623.519531 346.21875 623.519531 Z M 346.21875 623.519531 " fill-opacity="1" fill-rule="nonzero"/><path fill="#ffffff" d="M 418.796875 157.523438 L 671.972656 157.523438 C 674.976562 157.523438 677.414062 155.085938 677.414062 152.082031 C 677.414062 149.074219 674.976562 146.636719 671.972656 146.636719 L 418.796875 146.636719 C 415.792969 146.636719 413.355469 149.074219 413.355469 152.082031 C 413.355469 155.085938 415.792969 157.523438 418.796875 157.523438 Z M 418.796875 157.523438 " fill-opacity="1" fill-rule="nonzero"/></svg>